<svg width="100" height="100" viewBox="0 0 100 100" fill="none" xmlns="http://www.w3.org/2000/svg">
<g clip-path="url(#clip0_5298_46912)">
<g clip-path="url(#clip1_5298_46912)">
<rect y="-0.0102539" width="100" height="100" rx="18.75" fill="#1A3266"/>
<mask id="mask0_5298_46912" style="mask-type:alpha" maskUnits="userSpaceOnUse" x="0" y="-1" width="100" height="101">
<rect y="-0.0102539" width="100" height="100" rx="18" fill="#1A3266"/>
</mask>
<g mask="url(#mask0_5298_46912)">
<path d="M46.9014 38.2136C50.0254 41.3376 55.0903 41.3376 58.2142 38.2136C61.3382 35.0897 61.3382 30.0248 58.2142 26.9008L41.7164 10.4029C38.5924 7.27899 33.5275 7.27899 30.4035 10.4029C27.2796 13.5269 27.2796 18.5918 30.4035 21.7158L46.9014 38.2136Z" fill="url(#paint0_linear_5298_46912)"/>
<path d="M58.2134 75.9233C61.3373 72.7994 61.3373 67.7344 58.2134 64.6105C55.0894 61.4865 50.0245 61.4865 46.9005 64.6105L30.4027 81.1083C27.2787 84.2323 27.2787 89.2972 30.4027 92.4212C33.5266 95.5451 38.5915 95.5451 41.7155 92.4212L58.2134 75.9233Z" fill="url(#paint1_linear_5298_46912)"/>
<path d="M79.4118 85.0768C79.4118 80.6588 75.8303 77.0774 71.4124 77.0774C66.9945 77.0774 63.413 80.6588 63.413 85.0768V101.076C63.413 105.493 66.9945 109.075 71.4124 109.075C75.8303 109.075 79.4118 106.325 79.4118 106.325V85.0768Z" fill="url(#paint2_linear_5298_46912)"/>
<path d="M37.7481 59.4112C42.166 59.4112 45.7475 55.8298 45.7475 51.4119C45.7475 46.9939 42.166 43.4125 37.7481 43.4125H21.7494C17.3314 43.4125 13.75 46.9939 13.75 51.4119C13.75 55.8298 17.3314 59.4112 21.7494 59.4112H37.7481Z" fill="url(#paint3_linear_5298_46912)"/>
<path d="M79.4111 17.7481C79.4111 22.166 75.8297 25.7475 71.4118 25.7475C66.9939 25.7475 63.4124 22.166 63.4124 17.7481V1.74937C63.4124 -2.66856 66.9939 -6.25 71.4118 -6.25C75.8297 -6.25 79.4111 -2.66856 79.4111 1.74937V17.7481Z" fill="url(#paint4_linear_5298_46912)"/>
</g>
</g>
</g>
<defs>
<linearGradient id="paint0_linear_5298_46912" x1="79.4118" y1="109.075" x2="79.4497" y2="-6.24999" gradientUnits="userSpaceOnUse">
<stop stop-color="#367DDD"/>
<stop offset="0.171875" stop-color="#47AAF2"/>
<stop offset="1" stop-color="#86DEEA"/>
</linearGradient>
<linearGradient id="paint1_linear_5298_46912" x1="79.4118" y1="109.075" x2="79.4497" y2="-6.24999" gradientUnits="userSpaceOnUse">
<stop stop-color="#367DDD"/>
<stop offset="0.171875" stop-color="#47AAF2"/>
<stop offset="1" stop-color="#86DEEA"/>
</linearGradient>
<linearGradient id="paint2_linear_5298_46912" x1="79.4118" y1="109.075" x2="79.4497" y2="-6.24999" gradientUnits="userSpaceOnUse">
<stop stop-color="#367DDD"/>
<stop offset="0.171875" stop-color="#47AAF2"/>
<stop offset="1" stop-color="#86DEEA"/>
</linearGradient>
<linearGradient id="paint3_linear_5298_46912" x1="79.4118" y1="109.075" x2="79.4497" y2="-6.24999" gradientUnits="userSpaceOnUse">
<stop stop-color="#367DDD"/>
<stop offset="0.171875" stop-color="#47AAF2"/>
<stop offset="1" stop-color="#86DEEA"/>
</linearGradient>
<linearGradient id="paint4_linear_5298_46912" x1="79.4118" y1="109.075" x2="79.4497" y2="-6.24999" gradientUnits="userSpaceOnUse">
<stop stop-color="#367DDD"/>
<stop offset="0.171875" stop-color="#47AAF2"/>
<stop offset="1" stop-color="#86DEEA"/>
</linearGradient>
<clipPath id="clip0_5298_46912">
<rect width="100" height="100" fill="white"/>
</clipPath>
<clipPath id="clip1_5298_46912">
<rect width="100" height="100" fill="white" transform="translate(0 -0.00927734)"/>
</clipPath>
</defs>
</svg>
