<svg version="1.2" xmlns="http://www.w3.org/2000/svg" viewBox="0 0 32 32" width="32" height="32">
	<title>positive-rating-icon-svg</title>
	<style>
		.s0 { fill: #cfcfcf } 
		.s1 { fill: #15ce6a } 
	</style>
	<path id="Layer copy" class="s0" d="m16 23v-18.2c0 0-1 0.2-1.2 0.8l-2.5 5.9-6.5 0.6c-1.2 0-1.6 1.5-0.7 2.3l4.8 4.2-1.4 6.3c-0.3 1.2 1 2.1 2 1.5zm0 0v-18.3c0 0-1 0.3-1.3 0.8l-2.5 5.9-6.4 0.6c-1.2 0.1-1.7 1.5-0.8 2.3l4.9 4.3-1.5 6.3c-0.2 1.1 1 2 2 1.4zm0 0v-18.3c0 0 1 0.3 1.3 0.8l2.5 6 6.4 0.5c1.2 0.1 1.7 1.6 0.8 2.4l-4.9 4.2 1.5 6.3c0.2 1.1-1 2-2 1.4z"/>
	<path id="Layer" class="s1" d="m16 23v-18.2c0 0-1 0.2-1.2 0.8l-2.5 5.9-6.5 0.6c-1.2 0-1.6 1.5-0.7 2.3l4.8 4.2-1.4 6.3c-0.3 1.2 1 2.1 2 1.5zm0 0v-18.3c0 0-1 0.3-1.3 0.8l-2.5 5.9-6.4 0.6c-1.2 0.1-1.7 1.5-0.8 2.3l4.9 4.3-1.5 6.3c-0.2 1.1 1 2 2 1.4zm0 0v-18.3c0 0-1 0.3-1.2 0.8l-2.5 6-6.5 0.5c-1.1 0.1-1.6 1.6-0.7 2.4l4.9 4.2-1.5 6.3c-0.3 1.1 1 2 2 1.4z"/>
</svg>