<svg width="24" height="24" viewBox="0 0 24 24" fill="none" xmlns="http://www.w3.org/2000/svg">
<g clip-path="url(#clip0_25_4108)">
<path d="M14.8002 23L14.3502 20.9C14.0669 20.8 13.8044 20.6792 13.5627 20.5375C13.321 20.3958 13.0835 20.2333 12.8502 20.05L10.8502 20.7L9.4502 18.3L11.0502 16.9C11.0169 16.6 11.0002 16.3 11.0002 16C11.0002 15.7 11.0169 15.4 11.0502 15.1L9.4502 13.7L10.8502 11.3L12.8502 11.95C13.0835 11.7667 13.321 11.6042 13.5627 11.4625C13.8044 11.3208 14.0669 11.2 14.3502 11.1L14.8002 9H17.6002L18.0502 11.1C18.3335 11.2 18.596 11.3208 18.8377 11.4625C19.0794 11.6042 19.3169 11.7667 19.5502 11.95L21.5502 11.3L22.9502 13.7L21.3502 15.1C21.3835 15.4 21.4002 15.7 21.4002 16C21.4002 16.3 21.3835 16.6 21.3502 16.9L22.9502 18.3L21.5502 20.7L19.5502 20.05C19.3169 20.2333 19.0794 20.3958 18.8377 20.5375C18.596 20.6792 18.3335 20.8 18.0502 20.9L17.6002 23H14.8002ZM16.2002 19C17.0335 19 17.7419 18.7083 18.3252 18.125C18.9085 17.5417 19.2002 16.8333 19.2002 16C19.2002 15.1667 18.9085 14.4583 18.3252 13.875C17.7419 13.2917 17.0335 13 16.2002 13C15.3669 13 14.6585 13.2917 14.0752 13.875C13.4919 14.4583 13.2002 15.1667 13.2002 16C13.2002 16.8333 13.4919 17.5417 14.0752 18.125C14.6585 18.7083 15.3669 19 16.2002 19Z" fill="#003437"/>
<path fill-rule="evenodd" clip-rule="evenodd" d="M5.85 12L5.55 10.5C5.35 10.4167 5.1625 10.3292 4.9875 10.2375C4.8125 10.1458 4.63333 10.0333 4.45 9.9L3 10.35L2 8.65L3.15 7.65C3.11667 7.43333 3.1 7.21667 3.1 7C3.1 6.78333 3.11667 6.56667 3.15 6.35L2 5.35L3 3.65L4.45 4.1C4.63333 3.96667 4.8125 3.85417 4.9875 3.7625C5.1625 3.67083 5.35 3.58333 5.55 3.5L5.85 2H7.85L8.15 3.5C8.35 3.58333 8.5375 3.67083 8.7125 3.7625C8.8875 3.85417 9.06667 3.96667 9.25 4.1L10.7 3.65L11.7 5.35L10.55 6.35C10.5833 6.56667 10.6 6.78333 10.6 7C10.6 7.21667 10.5833 7.43333 10.55 7.65L11.7 8.65L10.7 10.35L9.25 9.9C9.06667 10.0333 8.8875 10.1458 8.7125 10.2375C8.5375 10.3292 8.35 10.4167 8.15 10.5L7.85 12H5.85ZM6.8501 9C7.4001 9 7.87093 8.80417 8.2626 8.4125C8.65426 8.02083 8.8501 7.55 8.8501 7C8.8501 6.45 8.65426 5.97917 8.2626 5.5875C7.87093 5.19583 7.4001 5 6.8501 5C6.3001 5 5.82926 5.19583 5.4376 5.5875C5.04593 5.97917 4.8501 6.45 4.8501 7C4.8501 7.55 5.04593 8.02083 5.4376 8.4125C5.82926 8.80417 6.3001 9 6.8501 9Z" fill="#15CE6A"/>
</g>
<defs>
<clipPath id="clip0_25_4108">
<rect width="24" height="24" fill="white"/>
</clipPath>
</defs>
</svg>
