<?xml version="1.0" encoding="utf-8"?>
<svg version="1.1" xmlns:xlink="http://www.w3.org/1999/xlink" width="15px" height="15px" xmlns="http://www.w3.org/2000/svg">
  <g transform="matrix(1 0 0 1 -1250 -295 )">
    <path d="M 15 1.6666666666666607  C 15 0.74583333333333  14.25416666666667 0  13.33333333333334 0  L 1.6666666666666607 0  C 0.74583333333333 0  0 0.74583333333333  0 1.6666666666666607  L 0 13.33333333333334  C 0 14.25416666666667  0.74583333333333 15  1.6666666666666607 15  L 13.33333333333334 15  C 14.25416666666667 15  15 14.25416666666667  15 13.33333333333334  L 15 1.6666666666666607  Z M 4.999999999999996 5.833333333333339  L 4.999999999999996 11.666666666666664  L 3.333333333333335 11.666666666666664  L 3.333333333333335 5.833333333333339  L 4.999999999999996 5.833333333333339  Z M 8.33333333333333 3.333333333333335  L 8.33333333333333 11.666666666666664  L 6.66666666666667 11.666666666666664  L 6.66666666666667 3.333333333333335  L 8.33333333333333 3.333333333333335  Z M 11.666666666666664 8.33333333333333  L 11.666666666666664 11.666666666666664  L 10.000000000000004 11.666666666666664  L 10.000000000000004 8.33333333333333  L 11.666666666666664 8.33333333333333  Z " fill-rule="nonzero" fill="#003437" stroke="none" transform="matrix(1 0 0 1 1250 295 )" />
  </g>
</svg>