<?xml version="1.0" encoding="utf-8"?>
<svg version="1.1" xmlns:xlink="http://www.w3.org/1999/xlink" width="18px" height="18px" xmlns="http://www.w3.org/2000/svg">
  <g transform="matrix(1 0 0 1 -283 -293 )">
    <path d="M 18 9  C 18 4.029910714285715  13.970089285714286 0  9 0  C 4.029910714285715 0  0 4.029910714285715  0 9  C 0 13.970089285714286  4.029910714285715 18  9 18  C 13.970089285714286 18  18 13.970089285714286  18 9  Z M 12.483482142857143 12.258482142857144  C 12.483482142857143 12.346874999999999  12.411160714285714 12.419196428571428  12.322767857142855 12.419196428571428  L 10.996875000000001 12.413169642857145  L 9 10.032589285714286  L 7.005133928571428 12.411160714285714  L 5.677232142857143 12.417187499999997  C 5.588839285714286 12.417187499999997  5.516517857142858 12.346874999999997  5.516517857142858 12.256473214285712  C 5.516517857142858 12.218303571428569  5.530580357142857 12.182142857142853  5.5546875 12.152008928571426  L 8.168303571428572 9.038169642857142  L 5.554687500000001 5.926339285714287  C 5.530412315986259 5.896896040196799  5.516943011139061 5.860032679562362  5.516517857142858 5.8218749999999995  C 5.516517857142858 5.733482142857144  5.588839285714286 5.661160714285715  5.677232142857143 5.661160714285715  L 7.00513392857143 5.667187500000001  L 9 8.047767857142858  L 10.994866071428572 5.66919642857143  L 12.32075892857143 5.663169642857144  C 12.409151785714284 5.663169642857144  12.481473214285714 5.733482142857144  12.481473214285714 5.823883928571429  C 12.481473214285714 5.862053571428572  12.467410714285712 5.898214285714285  12.44330357142857 5.928348214285714  L 9.833705357142858 9.040178571428573  L 12.4453125 12.154017857142858  C 12.469419642857144 12.184151785714285  12.483482142857143 12.220312499999999  12.483482142857143 12.258482142857144  Z " fill-rule="nonzero" fill="#555555" stroke="none" transform="matrix(1 0 0 1 283 293 )" />
  </g>
</svg>