<svg width="24" height="24" viewBox="0 0 24 24" fill="none" xmlns="http://www.w3.org/2000/svg">
<path d="M7.80147 2.00195H16.2015C19.4015 2.00195 22.0015 4.60195 22.0015 7.80195V16.202C22.0015 17.7402 21.3904 19.2155 20.3027 20.3032C19.215 21.3909 17.7397 22.002 16.2015 22.002H7.80147C4.60146 22.002 2.00146 19.402 2.00146 16.202V7.80195C2.00146 6.2637 2.61253 4.78844 3.70025 3.70073C4.78796 2.61302 6.26321 2.00195 7.80147 2.00195ZM7.60146 4.00195C6.64669 4.00195 5.73101 4.38124 5.05588 5.05637C4.38075 5.7315 4.00146 6.64717 4.00146 7.60195V16.402C4.00146 18.392 5.61146 20.002 7.60146 20.002H16.4015C17.3562 20.002 18.2719 19.6227 18.9471 18.9475C19.6222 18.2724 20.0015 17.3567 20.0015 16.402V7.60195C20.0015 5.61195 18.3915 4.00195 16.4015 4.00195H7.60146ZM17.2515 5.50195C17.583 5.50195 17.9009 5.63365 18.1353 5.86807C18.3698 6.10249 18.5015 6.42043 18.5015 6.75195C18.5015 7.08347 18.3698 7.40142 18.1353 7.63584C17.9009 7.87026 17.583 8.00195 17.2515 8.00195C16.9199 8.00195 16.602 7.87026 16.3676 7.63584C16.1332 7.40142 16.0015 7.08347 16.0015 6.75195C16.0015 6.42043 16.1332 6.10249 16.3676 5.86807C16.602 5.63365 16.9199 5.50195 17.2515 5.50195ZM12.0015 7.00195C13.3275 7.00195 14.5993 7.52874 15.537 8.46642C16.4747 9.4041 17.0015 10.6759 17.0015 12.002C17.0015 13.328 16.4747 14.5998 15.537 15.5375C14.5993 16.4752 13.3275 17.002 12.0015 17.002C10.6754 17.002 9.40361 16.4752 8.46593 15.5375C7.52825 14.5998 7.00146 13.328 7.00146 12.002C7.00146 10.6759 7.52825 9.4041 8.46593 8.46642C9.40361 7.52874 10.6754 7.00195 12.0015 7.00195ZM12.0015 9.00195C11.2058 9.00195 10.4428 9.31802 9.88014 9.88063C9.31753 10.4432 9.00146 11.2063 9.00146 12.002C9.00146 12.7976 9.31753 13.5607 9.88014 14.1233C10.4428 14.6859 11.2058 15.002 12.0015 15.002C12.7971 15.002 13.5602 14.6859 14.1228 14.1233C14.6854 13.5607 15.0015 12.7976 15.0015 12.002C15.0015 11.2063 14.6854 10.4432 14.1228 9.88063C13.5602 9.31802 12.7971 9.00195 12.0015 9.00195Z" fill="black"/>
</svg>
