<svg width="24" height="24" viewBox="0 0 24 24" fill="none" xmlns="http://www.w3.org/2000/svg">
<path d="M19.2823 7.78332C19.6306 7.44398 19.9704 7.11511 20.307 6.78296C20.4285 6.66265 20.4991 6.66004 20.5945 6.82677C21.2199 7.92063 21.7303 9.06026 21.859 10.3254C21.946 11.182 22.0427 12.0529 21.9799 12.9055C21.8427 14.7663 21.1788 16.4604 20.06 17.9583C19.2764 19.007 18.3282 19.8904 17.1957 20.5547C16.0671 21.217 14.8712 21.7237 13.557 21.8649C12.7989 21.9467 12.0285 22.0349 11.2724 21.9859C9.65822 21.8806 8.13231 21.4066 6.77238 20.5187C6.09535 20.0767 5.43401 19.5778 4.86939 19.0025C3.46437 17.5706 2.51549 15.8667 2.19919 13.8646C2.07241 13.0624 1.96132 12.2366 2.01295 11.4324C2.11032 9.90828 2.50242 8.45024 3.28596 7.10791C3.77478 6.27035 4.32829 5.48771 5.02427 4.82146C6.43974 3.46344 8.09898 2.53042 10.0451 2.19697C10.8345 2.06162 11.6501 1.97074 12.4467 2.00866C14.1164 2.08778 15.7057 2.51081 17.1356 3.42487C17.1963 3.46344 17.2682 3.48371 17.412 3.54517C17.0284 3.90609 16.6742 4.25458 16.2997 4.57954C16.2318 4.63838 16.0521 4.64688 15.9704 4.59915C15.1561 4.12839 14.27 3.84332 13.3544 3.70798C12.3317 3.55694 11.2926 3.55302 10.2692 3.76682C8.99558 4.03293 7.83954 4.57365 6.82531 5.37852C5.28893 6.59727 4.28124 8.17105 3.83033 10.0881C3.45326 11.6919 3.55259 13.2795 4.09434 14.8271C4.55963 16.1576 5.33664 17.3038 6.3842 18.246C7.5618 19.3045 8.94264 20.0401 10.5006 20.2807C12.6467 20.6122 14.6987 20.2722 16.5566 19.0463C18.2713 17.9151 19.4509 16.3904 20.0573 14.4276C20.3573 13.4573 20.4991 12.4569 20.4155 11.4487C20.3089 10.1626 19.9737 8.92884 19.2823 7.78398V7.78332Z" fill="#003437"/>
<path d="M15.9334 10.0839C16.3433 9.67142 16.7276 9.28462 17.1099 8.8998C18.5071 11.0601 18.2969 14.242 16.2132 16.2404C13.792 18.5632 10.5338 18.4329 8.37199 16.745C5.59796 14.5781 5.32535 10.9292 7.19748 8.40643C9.01114 5.96263 12.3389 5.23837 15.1609 6.89344C14.7878 7.2559 14.4272 7.61376 14.0547 7.9578C14.0035 8.00516 13.8747 8.01832 13.8071 7.98872C13.1121 7.68743 12.3849 7.61573 11.6374 7.63875C10.7256 7.66638 9.93866 8.02095 9.24827 8.58141C8.35557 9.30567 7.80575 10.2648 7.66255 11.3982C7.52329 12.504 7.75189 13.5677 8.41797 14.4873C9.02428 15.3234 9.81385 15.9181 10.8274 16.2016C12.2489 16.5989 13.5187 16.2838 14.682 15.4267C15.5097 14.8169 16.0017 13.9801 16.2546 13C16.5161 11.9863 16.3853 11.0068 15.9308 10.0839H15.9334Z" fill="#003437"/>
<path d="M12.9452 10.1587C13.9906 9.08863 15.0483 8.0119 16.0936 6.92323C16.1736 6.83964 16.2133 6.66317 16.1951 6.54177C16.0975 5.88233 16.331 5.40467 16.8293 4.97278C17.4713 4.41617 18.0418 3.77332 18.6578 3.18354C19.0988 2.7616 19.5646 2.36687 19.9744 2V3.79587H22C21.5642 4.22842 21.1921 4.59131 20.8272 4.9615C20.0206 5.78082 19.2146 6.60015 18.4165 7.42743C18.263 7.58665 18.1094 7.69412 17.8831 7.65233C17.308 7.54486 16.9021 7.78568 16.5099 8.2169C15.7 9.10721 14.8388 9.95041 13.9873 10.8009C13.8299 10.9581 13.7857 11.0895 13.865 11.3011C14.2995 12.4588 13.532 13.7279 12.2759 13.9727C11.1525 14.1916 9.97252 13.0526 10.0005 12.0004C10.0239 11.1021 10.582 10.2556 11.4251 10.0201C11.7744 9.92255 12.3793 9.96302 12.9452 10.1587Z" fill="#15CE6A"/>
</svg>
