<svg width="32" height="32" viewBox="0 0 32 32" fill="none" xmlns="http://www.w3.org/2000/svg">
<path d="M26.6658 26.6619L21.2658 21.2619M21.2658 21.2619C22.1326 20.3952 22.8201 19.3663 23.2892 18.2338C23.7582 17.1014 23.9996 15.8877 23.9996 14.6619C23.9996 13.4362 23.7582 12.2225 23.2892 11.09C22.8201 9.95761 22.1326 8.92866 21.2658 8.06193C20.3991 7.19521 19.3702 6.50769 18.2377 6.03862C17.1053 5.56955 15.8916 5.32812 14.6658 5.32813C13.4401 5.32813 12.2264 5.56955 11.0939 6.03862C9.96152 6.50769 8.93257 7.19521 8.06584 8.06193C6.31541 9.81236 5.33203 12.1865 5.33203 14.6619C5.33203 17.1374 6.31541 19.5115 8.06584 21.2619C9.81627 23.0124 12.1904 23.9957 14.6658 23.9957C17.1413 23.9957 19.5154 23.0124 21.2658 21.2619Z" stroke="#B5B5B5" stroke-width="2" stroke-linecap="round" stroke-linejoin="round"/>
</svg>
